<svg id="Layer_1" data-name="Layer 1" xmlns="http://www.w3.org/2000/svg" viewBox="0 0 46 46"><defs><style>.cls-1{fill:#fff;}.cls-2{fill:#572c86;}</style></defs><rect class="cls-1" x="9.06" y="6.07" width="27.14" height="35.96"/><path class="cls-2" d="M46,46H0V0H46ZM21.45,40.55c0,.34.68.51.85,0l1.53-12.78H19.92ZM25.2,26.92V25H18.56v1.88ZM23.32,24c8.34.34,9-7.32,9-10.22h0c-.17.68-1.37,2.73-4.43,4.09A7.37,7.37,0,0,0,23.32,24Zm-.85-.51c1.36-6.3,6.47-6.47,7-7.67.68-1.87-.68-5.28-1-5.62H28.3A11.16,11.16,0,0,1,25.54,14c-1,.85-5.45,4.26-3.07,9.54Zm-1,.34c-2.89-6,2.89-9.88,3.75-10.73.17-.17.17-.17.17-.34A15.49,15.49,0,0,0,24,7.33h-.17c-.51,1.87-3.06,4.6-3.57,5.28-4.43,5.11-3.41,8.35,1.19,11.24ZM20.26,24c-4.77-2.89-4.26-6.81-2.21-9.71V14a7.48,7.48,0,0,0-1.2-2.9c0-.17-.17-.17-.17,0,0,.86-1,2.9-2.38,5.12-1.36,2.38-1.36,7.66,6,7.83Z"/></svg>